<?xml version="1.0" encoding="UTF-8"?>
<svg viewBox="0 0 1000 500" xmlns="http://www.w3.org/2000/svg" xmlns:xlink="http://www.w3.org/1999/xlink">
 <defs>
  <filter id="l">
   <feGaussianBlur stdDeviation="11.6329"/>
  </filter>
  <filter id="k">
   <feGaussianBlur stdDeviation="1.9181"/>
  </filter>
  <filter id="j">
   <feGaussianBlur stdDeviation="1.9112"/>
  </filter>
  <filter id="i">
   <feGaussianBlur stdDeviation="6.6973"/>
  </filter>
  <linearGradient id="a">
   <stop stop-color="#fff" offset="0"/>
   <stop stop-color="#fff" stop-opacity="0" offset="1"/>
  </linearGradient>
  <linearGradient id="g" x1="1058.4" x2="503.68" y1="244.53" y2="496.89" gradientUnits="userSpaceOnUse">
   <stop stop-color="#b3b3b3" offset="0"/>
   <stop stop-color="#b3b3b3" stop-opacity="0" offset="1"/>
  </linearGradient>
  <linearGradient id="h" x1="800.39" x2="622.61" y1="380.75" y2="439.87" gradientUnits="userSpaceOnUse" xlink:href="#a"/>
  <radialGradient id="f" cx="482.22" cy="430.48" r="293.45" gradientTransform="matrix(1 0 0 .38554 0 267.49)" gradientUnits="userSpaceOnUse">
   <stop stop-color="#ccc" offset="0"/>
   <stop stop-color="#a3a3a3" offset=".9301"/>
   <stop stop-color="#eaeaea" offset=".9568"/>
   <stop stop-color="#eaeaea" offset=".9624"/>
   <stop stop-color="#ccc" offset="1"/>
  </radialGradient>
  <radialGradient id="e" cx="470.24" cy="432.14" r="293.45" gradientTransform="matrix(1 0 0 .38554 0 267.49)" gradientUnits="userSpaceOnUse">
   <stop stop-color="#ccc" offset="0"/>
   <stop stop-color="#e8e8e8" offset=".6191"/>
   <stop stop-color="#ededed" offset=".8983"/>
   <stop stop-color="#ccc" offset="1"/>
  </radialGradient>
  <radialGradient id="c" cx="629.45" cy="421.28" r="133.1" gradientTransform="matrix(1 0 0 .91461 0 37.387)" gradientUnits="userSpaceOnUse">
   <stop stop-color="#666" offset="0"/>
   <stop stop-color="#666" stop-opacity="0" offset="1"/>
  </radialGradient>
  <radialGradient id="d" cx="365.47" cy="444.5" r="134.03" gradientTransform="matrix(1 0 0 .9081 0 40.238)" gradientUnits="userSpaceOnUse" xlink:href="#a"/>
  <radialGradient id="b" cx="506.49" cy="407.96" r="293.45" gradientTransform="matrix(1.7671 -.02518 .00176 .31482 -383.55 310.42)" gradientUnits="userSpaceOnUse" xlink:href="#a"/>
 </defs>
 <g transform="translate(21.143 -218.03)">
  <path d="m507.73 253.58c-3.268-0.0151-6.5255 0.0112-9.8125 0.0312-10.346 0.0632-20.796 0.30095-31.312 0.71875-73.792 2.9317-143.16 14.353-203.94 32.062 0.9141 0.15251 1.8101 0.31459 2.7187 0.46875-140.49 40.265-235.92 113.64-235.06 193.81 0.01005 0.93902 0.02618 1.8775 0.0625 2.8125-0.05702 1.6095-0.07953 3.2288-0.0625 4.8438 1.2516 118.7 203.07 206.85 450.78 196.88s447.53-114.3 446.28-233l-2.4062-21.062c-20.032-91.575-159.99-159.86-340.88-173.91l-1.0938-0.0937c-0.5111-0.039-1.0194-0.0868-1.5312-0.125-23.871-2.1219-48.526-3.3212-73.75-3.4375z" fill="#666" filter="url(#l)"/>
  <path transform="matrix(1.5285 -.06155 .02003 1.8997 -229.05 -358.98)" d="m767.72 435.33c0 62.484-131.38 113.14-293.45 113.14s-293.45-50.653-293.45-113.14 131.38-113.14 293.45-113.14c150.88 0 277.17 44.113 292.02 102" fill="url(#f)"/>
  <path transform="matrix(1.5009 -.05952 .01967 1.8373 -223.92 -339.84)" d="m767.72 435.33c0 62.484-131.38 113.14-293.45 113.14s-293.45-50.653-293.45-113.14 131.38-113.14 293.45-113.14c150.88 0 277.17 44.113 292.02 102" fill="url(#e)"/>
  <path transform="matrix(1.5009 -.05952 .01967 1.8373 -223.92 -339.84)" d="m767.72 435.33c0 62.484-131.38 113.14-293.45 113.14s-293.45-50.653-293.45-113.14 131.38-113.14 293.45-113.14c150.88 0 277.17 44.113 292.02 102" fill="url(#h)"/>
  <path d="m523.62 222.18c-10.346 0.0632-20.782 0.2955-31.299 0.7133-73.792 2.9317-143.18 14.358-203.95 32.067 75.277 12.56 132.02 30.71 175.25 52.815 4.8411 2.4755 8.8583 8.0633 14.024 7.5672 291.82-28.029 383.09 160.1 139.62 225.09-3.2161 0.85853 1.4708 6.5251 2.198 9.7691 5.2485 23.414 10.779 46.477 18.73 68.539 171.18-34.612 293.64-116.39 292.68-206.89l-2.3528-20.22c-22.12-99.771-194.53-170.74-404.9-169.46z" fill="url(#g)"/>
  <path d="m537.25 316.12c-5.6978 0.0371-11.427 0.1606-17.219 0.40625-132.71 5.6291-239.76 64.511-239.09 131.5 0.65298 65.236 103.23 114.09 231.16 111.41-108.9-2.729-193.43-49.763-194-111.41-0.61871-66.989 98.137-125.87 220.59-131.5 3.458-0.15896 6.8898-0.27256 10.312-0.34375-3.8857-0.0715-7.8136-0.0881-11.75-0.0625z" fill="url(#d)" filter="url(#k)"/>
  <path d="m537.25 316.12c-1.4946 0.01-2.9986 0.0386-4.5 0.0625 105.1 1.6657 189.95 42.621 201.12 99.562l1.2188 11.906c0.63366 66.989-100.52 125.84-225.94 131.47-4.6395 0.20824-9.2405 0.34763-13.812 0.40625 8.903 0.12683 17.929-0.0175 27.094-0.40625 132.71-5.6291 239.76-64.48 239.09-131.47l-1.2812-11.906c-12.182-58.662-107.14-100.38-223-99.625z" fill="url(#c)" filter="url(#j)"/>
  <path transform="matrix(.69478 -.03128 .00911 .96542 191.8 31.379)" d="m767.72 435.33c0 62.484-131.38 113.14-293.45 113.14s-293.45-50.653-293.45-113.14 131.38-113.14 293.45-113.14c150.88 0 277.17 44.113 292.02 102" fill="url(#b)" filter="url(#i)"/>
 </g>
</svg>
