<?xml version="1.0" encoding="UTF-8"?>
<!DOCTYPE svg  PUBLIC '-//W3C//DTD SVG 1.1//EN'  'http://www.w3.org/Graphics/SVG/1.1/DTD/svg11.dtd'>
<svg enable-background="new 0 0 115 59" version="1.1" viewBox="0 0 115 59" xml:space="preserve" xmlns="http://www.w3.org/2000/svg" xmlns:xlink="http://www.w3.org/1999/xlink">
<symbol id="be" viewBox="-2.125 -17.8 65.775 37.5">
		<defs>
			<path id="ak" d="m-0.525 0.225l-1.6-13.275 4.525-3.3c5.468 2.891 13.584 7.357 24.35 13.4l-9.95 7.075-17.325-3.9zm62.475 19.275c-6.58-4.653-13.531-9.637-20.85-14.95 7.832 4.953 15.348 10.002 22.55 15.15l-1.7-0.2z"/>
		</defs>
		<clipPath id="av">
			<use xlink:href="#ak"/>
		</clipPath>
		<g clip-path="url(#av)">
					<radialGradient id="ax" cx="10.9" cy="-12.8" r="10.762" gradientTransform="matrix(1 0 0 .295 0 -9.0239)" gradientUnits="userSpaceOnUse">
					<stop stop-opacity=".8235" offset="0"/>
					<stop stop-opacity="0" offset="1"/>
				</radialGradient>
				<path d="m10.9-7.7c1.8 0 3.467-0.183 5-0.55 0.333-0.067 0.684-0.15 1.05-0.25 0.566-0.233 1.1-0.467 1.6-0.7 2.133-1 3.2-2.2 3.2-3.6 0-1.367-1.067-2.534-3.2-3.5-2.133-1-4.683-1.5-7.65-1.5-3 0-5.566 0.5-7.7 1.5-2.133 0.967-3.2 2.133-3.2 3.5 0 1.4 1.067 2.6 3.2 3.6s4.7 1.5 7.7 1.5z" clip-rule="evenodd" fill="url(#ax)" fill-rule="evenodd"/>
				<use transform="translate(2.6499)" y="-12.25" width="23.5" height="12.25" xlink:href="#bf"/>
		</g>
</symbol>
<symbol id="bf" viewBox="0 -12.25 23.5 12.25">
	<g clip-rule="evenodd" fill-rule="evenodd">
		<linearGradient id="ay" x1="14.321" x2="19.57" y1="-3.5679" y2="-8.3942" gradientUnits="userSpaceOnUse">
			<stop stop-opacity=".7294" offset="0"/>
			<stop stop-opacity="0" offset="1"/>
		</linearGradient>
		<path d="m16.35-9.75c0.333 0.167 0.65 0.35 0.95 0.55 0.133 0.133 0.267 0.25 0.4 0.35 0.133 0.133 0.267 0.25 0.4 0.35 0.8 0.7 1.117 1.5 0.95 2.4-0.033 0.1-0.05 0.217-0.05 0.35-0.1 0.5-0.25 0.983-0.45 1.45-0.066 0.167-0.133 0.316-0.2 0.45 2.3-0.933 3.783-1.683 4.45-2.25 0.467-0.533 0.7-1.15 0.7-1.85 0-0.8-0.783-1.617-2.35-2.45-1.467-0.733-2.733-1.1-3.8-1.1-0.267 0-0.533 0.383-0.8 1.15-0.067 0.2-0.133 0.4-0.2 0.6z" fill="url(#ay)"/>
		<path d="m13.7-10.85h-0.3s-0.617-0.083-1.55-0.25c-0.934-0.167-2.117-0.15-3.55 0.05-1.367 0.233-2.35 0.517-2.95 0.85l-0.05 0.05c-0.533 0.3-0.933 0.55-1.2 0.75l-0.1 0.1c-0.067 0.033-0.117 0.1-0.15 0.2-0.033 0.033-0.067 0.083-0.1 0.15-0.2 0.2-0.4 0.467-0.6 0.8s-0.333 0.667-0.4 1c-0.033 0-0.05 0.017-0.05 0.05-0.133 0.433-0.2 0.85-0.2 1.25 0 0.533 0.067 1.05 0.2 1.55 0.066 0.333 0.183 0.716 0.35 1.15 0.133 0.333 0.284 0.667 0.45 1 0.267 0.333 0.533 0.583 0.8 0.75 0.567 0.4 1.033 0.667 1.4 0.8s0.883 0.283 1.55 0.45c0.333 0.067 0.717 0.117 1.15 0.15h1.2c1.1-0.1 2.167-0.267 3.2-0.5 0.6-0.067 1.167-0.217 1.7-0.45 0.133-0.033 0.267-0.1 0.4-0.2 0.467-0.167 0.9-0.4 1.3-0.7 0.167-0.1 0.333-0.217 0.5-0.35 0.333-0.2 0.617-0.417 0.85-0.65l0.3-0.3c0.1-0.133 0.183-0.25 0.25-0.35 0.066-0.067 0.117-0.133 0.15-0.2 0.033-0.033 0.067-0.083 0.1-0.15 0.066-0.133 0.133-0.283 0.2-0.45 0.2-0.467 0.35-0.95 0.45-1.45 0-0.133 0.017-0.25 0.05-0.35 0.167-0.9-0.15-1.7-0.95-2.4-0.133-0.1-0.267-0.217-0.4-0.35-0.133-0.1-0.267-0.217-0.4-0.35-0.3-0.2-0.617-0.383-0.95-0.55-0.233-0.1-0.483-0.2-0.75-0.3-0.267-0.167-0.533-0.3-0.8-0.4-0.133-0.033-0.267-0.083-0.4-0.15-0.267-0.067-0.5-0.15-0.7-0.25zm2.4 7c0 0.4-0.167 0.7-0.5 0.9-0.2 0.167-0.434 0.25-0.7 0.25h-0.15l-0.3-0.1c-0.233-0.067-0.434-0.233-0.6-0.5-0.167-0.233-0.25-0.434-0.25-0.6 0-0.2 0.167-0.383 0.5-0.55 0.267-0.133 0.55-0.2 0.85-0.2 0.4 0 0.7 0.083 0.9 0.25 0.167 0.167 0.25 0.35 0.25 0.55zm-3.1 1.5c0.1 0 0.2 0.017 0.3 0.05 0.1 0.066 0.15 0.133 0.15 0.2 0 0.1-0.1 0.15-0.3 0.15h-0.15c-0.033-0.033-0.067-0.066-0.1-0.1l-0.15-0.15c0-0.1 0.083-0.15 0.25-0.15zm-2.3-0.35c-0.567-0.133-0.85-0.517-0.85-1.15 0-0.233 0.117-0.417 0.35-0.55 0.167-0.1 0.35-0.15 0.55-0.15 0.3 0 0.583 0.117 0.85 0.35 0.167 0.167 0.25 0.333 0.25 0.5 0 0.2-0.05 0.434-0.15 0.7-0.133 0.233-0.467 0.333-1 0.3zm0.1-8.1v0.15l-0.05 0.05c-0.133-0.033-0.2-0.083-0.2-0.15l0.15-0.1 0.1 0.05zm0.85 0.65c0 0.133-0.05 0.183-0.15 0.15-0.133-0.033-0.2-0.1-0.2-0.2 0-0.066 0.05-0.1 0.15-0.1 0.133 0 0.2 0.05 0.2 0.15zm0.9 0.35l0.05-0.15c0.033-0.066 0.1-0.1 0.2-0.1 0.2 0 0.3 0.083 0.3 0.25 0 0.133-0.1 0.2-0.3 0.2-0.167 0-0.25-0.067-0.25-0.2zm-0.95 2l0.1-0.1c0.066-0.1 0.15-0.15 0.25-0.15 0.233 0 0.35 0.083 0.35 0.25 0 0.2-0.117 0.3-0.35 0.3s-0.35-0.1-0.35-0.3zm-1.2-0.95l-0.2-0.25v-0.15c0-0.1 0.083-0.15 0.25-0.15s0.333 0.033 0.5 0.1c0.2 0.067 0.3 0.184 0.3 0.35 0 0.167-0.117 0.25-0.35 0.25-0.3-0.1-0.467-0.15-0.5-0.15zm0.55 1.2c0 0.133-0.05 0.183-0.15 0.15-0.1 0-0.15-0.05-0.15-0.15v-0.1c0.033-0.067 0.083-0.1 0.15-0.1 0.1 0 0.15 0.067 0.15 0.2zm-0.05 1c0.067 0.067 0.1 0.117 0.1 0.15 0 0.2-0.083 0.3-0.25 0.3-0.167 0.033-0.25-0.033-0.25-0.2 0-0.133 0.067-0.217 0.2-0.25h0.2zm3.6-2.3c0-0.1 0.067-0.15 0.2-0.15 0.167 0 0.25 0.083 0.25 0.25 0 0.133-0.067 0.2-0.2 0.2-0.167 0.033-0.25-0.034-0.25-0.2v-0.1zm-1 0.25l-0.15-0.15c-0.067-0.1-0.1-0.183-0.1-0.25h0.35c0.066 0.033 0.183 0.083 0.35 0.15s0.283 0.133 0.35 0.2c-0.1 0.066-0.25 0.117-0.45 0.15l-0.35-0.1zm0.3 1.15c-0.133 0-0.2-0.05-0.2-0.15l0.05-0.1c0.033-0.066 0.083-0.1 0.15-0.1 0.1 0 0.15 0.066 0.15 0.2 0 0.1-0.05 0.15-0.15 0.15zm1 1.05c-0.167 0-0.25-0.1-0.25-0.3l0.2-0.2h0.4c0.167 0.1 0.283 0.183 0.35 0.25 0.033 0.066 0.05 0.167 0.05 0.3 0 0.2-0.133 0.283-0.4 0.25-0.2-0.033-0.317-0.133-0.35-0.3zm-3.6 1.1c-0.034 0-0.05-0.034-0.05-0.1 0-0.167 0.117-0.25 0.35-0.25s0.433 0.05 0.6 0.15 0.25 0.2 0.25 0.3c0 0.233-0.133 0.35-0.4 0.35-0.1 0-0.284-0.083-0.55-0.25l-0.15-0.15c-0.033 0-0.05-0.017-0.05-0.05zm-7 0.85h0.2c0.033 0.033 0.05 0.083 0.05 0.15 0 0.167-0.083 0.25-0.25 0.25-0.1 0-0.167-0.017-0.2-0.05-0.067-0.033-0.1-0.1-0.1-0.2v-0.1c0.067-0.033 0.167-0.05 0.3-0.05zm0.6 1.15c0.1 0 0.133 0.033 0.1 0.1-0.033 0.1-0.083 0.15-0.15 0.15-0.1-0.033-0.15-0.067-0.15-0.1l0.05-0.15h0.15zm-0.05 1.15l-0.05 0.2c-0.3 0.067-0.45-0.017-0.45-0.25 0-0.1 0.017-0.167 0.05-0.2h0.25c0.133 0.033 0.2 0.117 0.2 0.25zm3.1-2.4l0.05-0.1c0.033-0.067 0.1-0.1 0.2-0.1 0.267 0 0.4 0.083 0.4 0.25l-0.05 0.2c-0.4 0.133-0.6 0.05-0.6-0.25zm-2.55 0.4c0-0.1 0.1-0.15 0.3-0.15 0.167 0 0.283 0.05 0.35 0.15 0.066 0.066 0.1 0.133 0.1 0.2 0 0.2-0.133 0.284-0.4 0.25-0.233 0-0.35-0.083-0.35-0.25v-0.2zm1.5 0.2c0.1 0 0.15 0.067 0.15 0.2 0 0.167-0.05 0.217-0.15 0.15-0.1 0-0.15-0.05-0.15-0.15 0-0.133 0.05-0.2 0.15-0.2zm2.45 1.1v0.1c-0.333 0.033-0.483-0.033-0.45-0.2 0.1-0.033 0.2-0.05 0.3-0.05s0.15 0.05 0.15 0.15zm-1.55 0.25l0.05 0.1-0.2 0.2-0.1-0.05 0.05-0.25h0.2zm8.5-5.3c0-0.033 0.017-0.05 0.05-0.05h0.4c0.067 0 0.167 0.034 0.3 0.1 0.1 0.033 0.15 0.067 0.15 0.1v0.1l-0.9-0.25zm0.45 1.2c0.467 0 0.7 0.133 0.7 0.4 0 0.167-0.184 0.283-0.55 0.35-0.4 0.034-0.6-0.1-0.6-0.4v-0.2c0.033-0.1 0.183-0.15 0.45-0.15zm-7.9-3.9c-0.133 0-0.2-0.05-0.2-0.15l0.05-0.1h0.1c0.167 0 0.25 0.05 0.25 0.15 0 0.067-0.067 0.1-0.2 0.1zm0.55 0.25c0.3 0 0.45 0.117 0.45 0.35 0.033 0.167-0.05 0.25-0.25 0.25-0.4 0-0.6-0.117-0.6-0.35l0.05-0.15c0.033-0.067 0.15-0.1 0.35-0.1zm-2.4 0.45c0 0.233-0.133 0.35-0.4 0.35-0.267-0.034-0.4-0.133-0.4-0.3l0.05-0.1c0.067-0.133 0.2-0.2 0.4-0.2 0.1 0 0.184 0.033 0.25 0.1 0.067 0.067 0.1 0.117 0.1 0.15zm-1.4 1.6c-0.133-0.567-0.083-0.883 0.15-0.95 0.233-0.033 0.433-0.05 0.6-0.05 0.2 0 0.433 0.033 0.7 0.1 0.367 0.167 0.55 0.367 0.55 0.6 0 0.167-0.067 0.3-0.2 0.4-0.233 0.167-0.533 0.25-0.9 0.25-0.467 0-0.767-0.117-0.9-0.35zm0.35 0.9c-0.167-0.033-0.25-0.1-0.25-0.2v-0.1c0.033-0.066 0.1-0.1 0.2-0.1 0.2 0 0.3 0.083 0.3 0.25s-0.083 0.217-0.25 0.15zm1 1.1c-0.067 0.033-0.133 0.05-0.2 0.05-0.267 0.033-0.4-0.033-0.4-0.2v-0.2l0.05-0.25h0.6l0.1 0.1c0.1 0.066 0.15 0.15 0.15 0.25 0 0.167-0.1 0.25-0.3 0.25zm1.7-2.2c0.033-0.067 0.083-0.117 0.15-0.15h0.45c0.133 0.066 0.2 0.117 0.2 0.15 0.033 0.067 0.05 0.133 0.05 0.2 0 0.233-0.133 0.316-0.4 0.25-0.3-0.033-0.45-0.15-0.45-0.35v-0.1zm0.15-0.5c-0.167 0-0.25-0.033-0.25-0.1l0.05-0.15c0.033-0.033 0.133-0.05 0.3-0.05l0.1 0.05v0.15c0 0.067-0.067 0.1-0.2 0.1zm1.25 1.4l-0.05 0.05c-0.066 0-0.1-0.017-0.1-0.05l0.05-0.05c0.033 0 0.067 0.017 0.1 0.05zm-0.7 0.2c0.167 0 0.283 0.066 0.35 0.2 0.033 0.1 0.05 0.217 0.05 0.35 0 0.233-0.183 0.367-0.55 0.4-0.233 0-0.383-0.066-0.45-0.2-0.066-0.033-0.1-0.117-0.1-0.25 0-0.333 0.233-0.5 0.7-0.5zm-4.35-0.8c0 0.267-0.117 0.383-0.35 0.35-0.067-0.033-0.117-0.05-0.15-0.05-0.133-0.067-0.2-0.15-0.2-0.25v-0.05c0.033-0.133 0.15-0.2 0.35-0.2 0.1 0 0.184 0.033 0.25 0.1 0.067 0.033 0.1 0.067 0.1 0.1zm-1.1 1.4c0.333 0 0.5 0.1 0.5 0.3 0 0.233-0.15 0.333-0.45 0.3-0.333-0.033-0.5-0.167-0.5-0.4 0-0.133 0.15-0.2 0.45-0.2z" fill="#EEE7DD"/>
		<path d="m16.1-3.85c0-0.2-0.083-0.383-0.25-0.55-0.2-0.167-0.5-0.25-0.9-0.25-0.3 0-0.583 0.066-0.85 0.2-0.333 0.167-0.5 0.35-0.5 0.55 0 0.167 0.083 0.367 0.25 0.6 0.167 0.267 0.367 0.433 0.6 0.5l0.3 0.1h0.15c0.267 0 0.5-0.083 0.7-0.25 0.333-0.2 0.5-0.5 0.5-0.9zm-3.1 1.5c-0.167 0-0.25 0.05-0.25 0.15l0.15 0.15c0.033 0.033 0.067 0.066 0.1 0.1h0.15c0.2 0 0.3-0.05 0.3-0.15 0-0.066-0.05-0.133-0.15-0.2-0.1-0.033-0.2-0.05-0.3-0.05zm-2.3-0.35c0.533 0.034 0.867-0.066 1-0.3 0.1-0.267 0.15-0.5 0.15-0.7 0-0.167-0.083-0.333-0.25-0.5-0.267-0.233-0.55-0.35-0.85-0.35-0.2 0-0.383 0.05-0.55 0.15-0.233 0.133-0.35 0.317-0.35 0.55 0 0.633 0.283 1.017 0.85 1.15zm0.5-2.6c0 0.033 0.017 0.05 0.05 0.05l0.15 0.15c0.267 0.167 0.45 0.25 0.55 0.25 0.267 0 0.4-0.117 0.4-0.35 0-0.1-0.083-0.2-0.25-0.3s-0.367-0.15-0.6-0.15-0.35 0.083-0.35 0.25c0 0.067 0.017 0.1 0.05 0.1zm3.6-1.1c0.034 0.167 0.15 0.267 0.35 0.3 0.267 0.033 0.4-0.05 0.4-0.25 0-0.133-0.017-0.233-0.05-0.3-0.067-0.067-0.183-0.15-0.35-0.25h-0.4l-0.2 0.2c0 0.2 0.083 0.3 0.25 0.3zm-1-1.05c0.1 0 0.15-0.05 0.15-0.15 0-0.133-0.05-0.2-0.15-0.2-0.066 0-0.117 0.033-0.15 0.1l-0.05 0.1c0 0.1 0.067 0.15 0.2 0.15zm-0.3-1.15l0.35 0.1c0.2-0.033 0.35-0.083 0.45-0.15-0.066-0.067-0.183-0.133-0.35-0.2s-0.283-0.117-0.35-0.15h-0.35c0 0.067 0.033 0.15 0.1 0.25l0.15 0.15zm1-0.25v0.1c0 0.167 0.083 0.233 0.25 0.2 0.133 0 0.2-0.067 0.2-0.2 0-0.167-0.083-0.25-0.25-0.25-0.133 0-0.2 0.05-0.2 0.15zm-3.6 2.3h-0.2c-0.133 0.033-0.2 0.117-0.2 0.25 0 0.167 0.083 0.233 0.25 0.2 0.167 0 0.25-0.1 0.25-0.3 0-0.033-0.033-0.083-0.1-0.15zm0.05-1c0-0.133-0.05-0.2-0.15-0.2-0.066 0-0.117 0.033-0.15 0.1v0.1c0 0.1 0.05 0.15 0.15 0.15 0.1 0.033 0.15-0.017 0.15-0.15zm-0.55-1.2c0.033 0 0.2 0.05 0.5 0.15 0.233 0 0.35-0.083 0.35-0.25s-0.1-0.283-0.3-0.35c-0.167-0.066-0.333-0.1-0.5-0.1s-0.25 0.05-0.25 0.15v0.15l0.2 0.25zm1.2 0.95c0 0.2 0.117 0.3 0.35 0.3s0.35-0.1 0.35-0.3c0-0.167-0.117-0.25-0.35-0.25-0.1 0-0.184 0.05-0.25 0.15l-0.1 0.1zm0.95-2c0 0.133 0.083 0.2 0.25 0.2 0.2 0 0.3-0.066 0.3-0.2 0-0.167-0.1-0.25-0.3-0.25-0.1 0-0.167 0.033-0.2 0.1l-0.05 0.15zm-0.9-0.35c0-0.1-0.066-0.15-0.2-0.15-0.1 0-0.15 0.033-0.15 0.1 0 0.1 0.067 0.167 0.2 0.2 0.1 0.033 0.15-0.017 0.15-0.15zm-0.85-0.65l-0.1-0.05-0.15 0.1c0 0.067 0.067 0.117 0.2 0.15l0.05-0.05v-0.15zm5.85 4.1c-0.267 0-0.417 0.05-0.45 0.15v0.2c0 0.3 0.2 0.434 0.6 0.4 0.367-0.066 0.55-0.183 0.55-0.35 0-0.267-0.233-0.4-0.7-0.4zm-0.45-1.2l0.9 0.25v-0.1c0-0.033-0.05-0.067-0.15-0.1-0.133-0.066-0.233-0.1-0.3-0.1h-0.4c-0.033 0-0.05 0.017-0.05 0.05zm-8.5 5.3h-0.2l-0.05 0.25 0.1 0.05 0.2-0.2-0.05-0.1zm1.55-0.25c0-0.1-0.05-0.15-0.15-0.15s-0.2 0.017-0.3 0.05c-0.033 0.167 0.117 0.233 0.45 0.2v-0.1zm-2.45-1.1c-0.1 0-0.15 0.067-0.15 0.2 0 0.1 0.05 0.15 0.15 0.15 0.1 0.067 0.15 0.017 0.15-0.15 0-0.133-0.05-0.2-0.15-0.2zm-1.5-0.2v0.2c0 0.167 0.117 0.25 0.35 0.25 0.267 0.034 0.4-0.05 0.4-0.25 0-0.066-0.033-0.133-0.1-0.2-0.067-0.1-0.183-0.15-0.35-0.15-0.2 0-0.3 0.05-0.3 0.15zm2.55-0.4c0 0.3 0.2 0.383 0.6 0.25l0.05-0.2c0-0.167-0.133-0.25-0.4-0.25-0.1 0-0.167 0.033-0.2 0.1l-0.05 0.1zm-3.1 2.4c0-0.133-0.067-0.217-0.2-0.25h-0.25c-0.033 0.033-0.05 0.1-0.05 0.2 0 0.233 0.15 0.317 0.45 0.25l0.05-0.2zm0.05-1.15h-0.15l-0.05 0.15c0 0.033 0.05 0.066 0.15 0.1 0.067 0 0.117-0.05 0.15-0.15 0.033-0.067 0-0.1-0.1-0.1zm-0.6-1.15c-0.133 0-0.233 0.017-0.3 0.05v0.1c0 0.1 0.033 0.167 0.1 0.2 0.033 0.033 0.1 0.05 0.2 0.05 0.167 0 0.25-0.083 0.25-0.25 0-0.067-0.017-0.117-0.05-0.15h-0.2zm-0.4-2.35c-0.3 0-0.45 0.066-0.45 0.2 0 0.233 0.167 0.367 0.5 0.4 0.3 0.033 0.45-0.067 0.45-0.3 0-0.2-0.167-0.3-0.5-0.3zm1.1-1.4c0-0.033-0.033-0.066-0.1-0.1-0.067-0.067-0.15-0.1-0.25-0.1-0.2 0-0.316 0.066-0.35 0.2v0.05c0 0.1 0.066 0.183 0.2 0.25 0.033 0 0.083 0.017 0.15 0.05 0.233 0.033 0.35-0.083 0.35-0.35zm4.35 0.8c-0.467 0-0.7 0.167-0.7 0.5 0 0.133 0.034 0.217 0.1 0.25 0.067 0.133 0.217 0.2 0.45 0.2 0.367-0.033 0.55-0.167 0.55-0.4 0-0.133-0.017-0.25-0.05-0.35-0.067-0.133-0.183-0.2-0.35-0.2zm0.7-0.2c-0.034-0.033-0.067-0.05-0.1-0.05l-0.05 0.05c0 0.033 0.034 0.05 0.1 0.05l0.05-0.05zm-1.25-1.4c0.133 0 0.2-0.033 0.2-0.1v-0.15l-0.1-0.05c-0.167 0-0.267 0.017-0.3 0.05l-0.05 0.15c0 0.067 0.083 0.1 0.25 0.1zm-0.15 0.5v0.1c0 0.2 0.15 0.317 0.45 0.35 0.267 0.067 0.4-0.017 0.4-0.25 0-0.067-0.017-0.133-0.05-0.2 0-0.033-0.067-0.083-0.2-0.15h-0.45c-0.067 0.033-0.117 0.083-0.15 0.15zm-1.7 2.2c0.2 0 0.3-0.083 0.3-0.25 0-0.1-0.05-0.183-0.15-0.25l-0.1-0.1h-0.6l-0.05 0.25v0.2c0 0.167 0.133 0.233 0.4 0.2 0.067 0 0.133-0.017 0.2-0.05zm-1-1.1c0.167 0.067 0.25 0.017 0.25-0.15s-0.1-0.25-0.3-0.25c-0.1 0-0.167 0.033-0.2 0.1v0.1c0 0.1 0.083 0.167 0.25 0.2zm-0.35-0.9c0.133 0.233 0.433 0.35 0.9 0.35 0.367 0 0.667-0.083 0.9-0.25 0.133-0.1 0.2-0.233 0.2-0.4 0-0.233-0.183-0.433-0.55-0.6-0.267-0.066-0.5-0.1-0.7-0.1-0.167 0-0.367 0.017-0.6 0.05-0.233 0.067-0.283 0.383-0.15 0.95zm1.4-1.6c0-0.033-0.033-0.083-0.1-0.15-0.066-0.067-0.15-0.1-0.25-0.1-0.2 0-0.333 0.066-0.4 0.2l-0.05 0.1c0 0.167 0.133 0.267 0.4 0.3 0.267 0 0.4-0.117 0.4-0.35zm2.4-0.45c-0.2 0-0.316 0.033-0.35 0.1l-0.05 0.15c0 0.233 0.2 0.35 0.6 0.35 0.2 0 0.283-0.083 0.25-0.25 0-0.233-0.15-0.35-0.45-0.35zm-0.55-0.25c0.133 0 0.2-0.033 0.2-0.1 0-0.1-0.083-0.15-0.25-0.15h-0.1l-0.05 0.1c0 0.1 0.067 0.15 0.2 0.15z" fill="#968478"/>
		<path d="m3.25-9.7c-0.2 0.233-0.4 0.467-0.6 0.7-0.1 0.1-0.2 0.233-0.3 0.4-0.233 0.3-0.4 0.617-0.5 0.95-0.067 0.167-0.117 0.35-0.15 0.55v0.1c-0.167 1.267 0.1 2.467 0.8 3.6 0.033 0.033 0.067 0.066 0.1 0.1l0.1 0.1c0.3 0.4 0.567 0.75 0.8 1.05-0.167-0.333-0.317-0.667-0.45-1-0.167-0.433-0.283-0.817-0.35-1.15-0.133-0.5-0.2-1.017-0.2-1.55 0-0.4 0.067-0.816 0.2-1.25 0-0.033 0.017-0.05 0.05-0.05 0.067-0.333 0.2-0.667 0.4-1s0.4-0.6 0.6-0.8c0.033-0.066 0.067-0.117 0.1-0.15 0.033-0.1 0.083-0.167 0.15-0.2 0.033-0.034 0.067-0.067 0.1-0.1 0.267-0.2 0.667-0.45 1.2-0.75l0.05-0.05c0.6-0.333 1.583-0.617 2.95-0.85 1.434-0.2 2.617-0.217 3.55-0.05s1.45 0.25 1.55 0.25 0.2 0 0.3 0c-0.367-0.1-0.717-0.217-1.05-0.35-1.133-0.333-2.233-0.5-3.3-0.5-1.067 0.034-1.983 0.167-2.75 0.4-0.8 0.233-1.567 0.533-2.3 0.9-0.133 0.066-0.283 0.15-0.45 0.25-0.2 0.133-0.4 0.283-0.6 0.45z" fill="#C6BDB0"/>
		<linearGradient id="az" x1="5.6543" x2="-.6952" y1="-3.5059" y2="-10.981" gradientUnits="userSpaceOnUse">
			<stop stop-opacity=".7294" offset="0"/>
			<stop stop-opacity="0" offset="1"/>
		</linearGradient>
		<path d="m2.6-3.3l-0.1-0.1c-0.7-1.133-0.967-2.333-0.8-3.6v-0.1c0.033-0.2 0.083-0.383 0.15-0.55 0.1-0.333 0.267-0.65 0.5-0.95 0.1-0.167 0.2-0.3 0.3-0.4 0.2-0.233 0.4-0.467 0.6-0.7l-1.6-2.45h-0.2c-0.633-0.067-0.967-0.1-1-0.1-0.3 0-0.45 0.317-0.45 0.95 0 0.867 0.217 2.133 0.65 3.8 0.467 2 1.083 3.4 1.85 4.2h0.1z" fill="url(#az)"/>
			<linearGradient id="ba" x1="10.302" x2="10.393" y1="1.1055" y2="-8.5946" gradientUnits="userSpaceOnUse">
				<stop stop-opacity=".3451" offset=".0196"/>
				<stop stop-opacity="0" offset="1"/>
			</linearGradient>
			<path d="m16.2-1.85c0.167-0.1 0.333-0.217 0.5-0.35 0.466-0.3 0.85-0.617 1.15-0.95 0.133-0.2 0.267-0.383 0.4-0.55l0.3-0.6c0.2-0.467 0.35-0.95 0.45-1.45 0-0.133 0.017-0.25 0.05-0.35 0.167-0.9-0.15-1.7-0.95-2.4-0.133-0.1-0.267-0.217-0.4-0.35-0.133-0.1-0.267-0.217-0.4-0.35-0.533-0.367-1.1-0.65-1.7-0.85-0.267-0.167-0.533-0.3-0.8-0.4-0.4-0.133-0.767-0.267-1.1-0.4-0.367-0.1-0.717-0.217-1.05-0.35-1.133-0.333-2.233-0.5-3.3-0.5-1.067 0.034-1.983 0.167-2.75 0.4-0.8 0.233-1.567 0.533-2.3 0.9-0.133 0.066-0.283 0.15-0.45 0.25-0.433 0.3-0.833 0.683-1.2 1.15-0.1 0.1-0.2 0.233-0.3 0.4-0.233 0.3-0.4 0.617-0.5 0.95-0.067 0.167-0.117 0.35-0.15 0.55v0.1c-0.167 1.267 0.1 2.467 0.8 3.6 0.367 0.467 0.7 0.883 1 1.25 0.267 0.333 0.533 0.583 0.8 0.75 0.567 0.4 1.033 0.667 1.4 0.8s0.883 0.283 1.55 0.45c0.333 0.067 0.717 0.117 1.15 0.15h1.2c1.1-0.1 2.167-0.267 3.2-0.5 0.6-0.067 1.167-0.217 1.7-0.45 0.133-0.033 0.267-0.1 0.4-0.2 0.467-0.167 0.9-0.4 1.3-0.7z" fill="url(#ba)"/>
			<linearGradient id="bb" x1="10.03" x2="5.6895" y1="-.5571" y2="-8.5236" gradientUnits="userSpaceOnUse">
				<stop stop-color="#fff" stop-opacity=".7255" offset="0"/>
				<stop stop-color="#fff" stop-opacity="0" offset="1"/>
			</linearGradient>
			<path d="m2.7-4.7c0.2 0.533 0.633 1.1 1.3 1.7 1.167 1.1 2.283 1.783 3.35 2.05 1.066 0.3 1.816 0.367 2.25 0.2 0.6-0.233 0.9-0.583 0.9-1.05 0-0.367-0.2-0.65-0.6-0.85-0.733-0.267-1.4-0.533-2-0.8-0.5-0.2-1.183-0.717-2.05-1.55-0.7-0.633-1.4-0.95-2.1-0.95-0.667 0-1.017 0.4-1.05 1.2v0.05zm10.2 3.2c0.767 0 1.15-0.267 1.15-0.8 0-0.534-0.333-0.8-1-0.8-0.767 0-1.15 0.217-1.15 0.65 0 0.167 0.05 0.333 0.15 0.5 0.133 0.133 0.233 0.25 0.3 0.35l0.55 0.1z" fill="url(#bb)"/>
	</g>
</symbol>
<symbol id="bg">
</symbol>
<symbol id="bh" viewBox="0 -62.65 114.3 69.65">
			<use transform="translate(.3501)" y="-51.5" width="100.7" height="58.5" xlink:href="#bi"/>
				<path d="m19.25 3.6c-7.767-1.667-12.633-3.533-14.6-5.6-0.133-0.133-0.383-0.5-0.75-1.1-0.367-0.533 0.633-1.267 3-2.2l0.3-0.1c0.1 0 0.2-0.033 0.3-0.1h0.1c2.833-1.067 4.4-1.65 4.7-1.75 1.867-0.433 4.034-0.85 6.5-1.25 10.567-1.9 23.333-2.85 38.3-2.85s27.733 0.95 38.3 2.85c2.8 0.467 5.233 0.967 7.3 1.5 2.066 0.533 3.7 1.1 4.9 1.7 0.2 0.066 0.417 0.183 0.65 0.35h0.1c2.167 1.233 2.233 2.45 0.2 3.65-1.9 1.533-5.216 2.9-9.95 4.1 5.033-1.066 8.566-2.2 10.6-3.4 0.1-0.1 0.2-0.183 0.3-0.25 0.667-0.467 1.15-0.967 1.45-1.5 0.033 0 0.066-0.066 0.1-0.2h0.05l-0.05-1.5c-0.133-0.3-0.367-0.633-0.7-1-0.3-0.3-0.684-0.617-1.15-0.95-0.267-0.133-0.55-0.283-0.85-0.45-0.7-0.3-1.5-0.633-2.4-1h-0.1c-1.333-0.4-2.9-0.816-4.7-1.25-1.7-0.4-3.617-0.783-5.75-1.15-10.566-1.9-23.333-2.85-38.3-2.85s-27.733 0.95-38.3 2.85c-4.566 0.767-8.15 1.6-10.75 2.5-0.1 0-0.2-0.033-0.3-0.1-0.667 0.3-1.267 0.567-1.8 0.8-2.167 1.067-3.283 2.167-3.35 3.3v0.1c0 0.233 0.05 0.467 0.15 0.7 0.033 0.133 0.083 0.25 0.15 0.35 1.233 2.133 6.434 4.034 15.6 5.7 0.233 0.067 0.483 0.1 0.75 0.1z" clip-rule="evenodd" fill="#DAF5F0" fill-opacity=".7843" fill-rule="evenodd"/>
				<path d="m108.25-4.85c-2.071 2.068-5.179 3.518-9.325 4.35-4.139 0.829-7.873 1.496-11.2 2-3.32 0.508-6.271 0.858-8.85 1.05-2.58 0.193-5.346 0.385-8.3 0.575-2.962 0.188-9.545 0.238-19.75 0.15-10.205-0.086-20.03-1.044-29.475-2.875-9.437-1.833-14.571-3.266-15.4-4.3-0.968 1.273 3.09 2.856 12.175 4.75 9.085 1.887 19.151 2.97 30.2 3.25 11.05 0.281 18.324 0.29 21.825 0.025 3.498-0.261 6.59-0.52 9.275-0.775 2.688-0.261 5.572-0.661 8.65-1.2 3.076-0.532 6.676-1.182 10.8-1.95 4.119-0.768 7.211-2.134 9.275-4.1l0.1-0.95z" clip-rule="evenodd" fill="#436A63" fill-opacity=".5294" fill-rule="evenodd"/>
				<path d="m6.9-5.3c-1.033 0.467-1.35 0.933-0.95 1.4 0.829 1.034 5.962 2.467 15.4 4.3 9.445 1.831 19.27 2.79 29.475 2.875 10.205 0.088 16.788 0.039 19.75-0.15 2.954-0.19 5.72-0.382 8.3-0.575 2.58-0.192 5.53-0.542 8.85-1.05 3.327-0.504 7.061-1.171 11.2-2 4.146-0.832 7.254-2.282 9.325-4.35l0.1-0.1h-0.1c-0.233-0.167-0.45-0.283-0.65-0.35-1.2-0.6-2.833-1.167-4.9-1.7s-4.5-1.033-7.3-1.5c-10.566-1.9-23.333-2.85-38.3-2.85s-27.733 0.95-38.3 2.85c-2.466 0.4-4.633 0.817-6.5 1.25-0.3 0.1-1.867 0.683-4.7 1.75h-0.1c-0.1 0.067-0.2 0.1-0.3 0.1l-0.3 0.1z" clip-rule="evenodd" fill="#E3FFFA" fill-opacity=".5294" fill-rule="evenodd"/>
				<path d="m6.9-5.3c-2.367 0.933-3.367 1.667-3 2.2 0.367 0.6 0.617 0.967 0.75 1.1 1.967 2.067 6.833 3.933 14.6 5.6 10.467 1.767 23.017 2.65 37.65 2.65 15.033 0 27.85-0.917 38.45-2.75l3.25-0.7c4.733-1.2 8.05-2.566 9.95-4.1 2.034-1.2 1.967-2.417-0.2-3.65l-0.1 0.1-0.1 0.95c-2.064 1.966-5.156 3.333-9.275 4.1-4.124 0.768-7.724 1.418-10.8 1.95-3.079 0.539-5.962 0.939-8.65 1.2-2.685 0.255-5.777 0.514-9.275 0.775-3.501 0.265-10.775 0.256-21.825-0.025-11.049-0.28-21.115-1.363-30.2-3.25-9.084-1.893-13.143-3.477-12.175-4.75-0.4-0.467-0.083-0.933 0.95-1.4z" clip-rule="evenodd" fill="#99ADA9" fill-opacity=".5294" fill-rule="evenodd"/>
						<linearGradient id="bc" x1="-231.7" x2="-192.1" y1="-16209" y2="-16209" gradientTransform="matrix(.0038 -1 .9999 .0224 16266 155.76)" gradientUnits="userSpaceOnUse">
						<stop stop-color="#231F20" offset="0"/>
						<stop stop-color="#231F20" stop-opacity=".7961" offset=".0902"/>
						<stop stop-color="#231F20" stop-opacity="0" offset="1"/>
					</linearGradient>
					<path d="m56.95 6.15c15.033 0 27.85-0.95 38.45-2.85l3.25-0.7c4.733-1.267 8.05-2.7 9.95-4.3 2.033-1.267 1.967-2.533-0.2-3.8h-0.1c-0.233-0.167-0.45-0.3-0.65-0.4-1.2-0.633-2.833-1.217-4.9-1.75-2.067-0.567-4.5-1.083-7.3-1.55-10.567-2-23.333-3-38.3-3s-27.733 1-38.3 3c-2.467 0.4-4.633 0.833-6.5 1.3-0.3 0.066-1.867 0.667-4.7 1.8h-0.1c-0.1 0.067-0.2 0.1-0.3 0.1l-0.2 0.1c-2.433 0.967-3.466 1.733-3.1 2.3 0.367 0.633 0.617 1.033 0.75 1.2 1.966 2.133 6.833 4.083 14.6 5.85 10.467 1.8 23.017 2.7 37.65 2.7z" clip-rule="evenodd" fill="url(#bc)" fill-rule="evenodd"/>
					<path d="m50.35 3.9c-10.667-0.333-21.5-1.4-32.5-3.2-8.867-1.467-12.817-2.833-11.85-4.1-0.4-0.467-0.083-0.933 0.95-1.4-2.367 0.933-3.367 1.667-3 2.2 0.367 0.6 0.617 0.967 0.75 1.1 1.966 2.067 6.833 3.933 14.6 5.6 10.467 1.767 23.017 2.65 37.65 2.65 15.033 0 27.85-0.917 38.45-2.75l3.25-0.7c4.733-1.2 8.05-2.566 9.95-4.1 2.033-1.2 1.967-2.417-0.2-3.65l-0.1 0.1-0.1 0.95c-2.067 1.967-5.05 3.283-8.95 3.95-4.667 0.833-8.833 1.45-12.5 1.85-3.7 0.467-7.15 0.733-10.35 0.8-3.233 0.133-5.717 0.367-7.45 0.7-1.767 0.3-7.967 0.3-18.6 0z" clip-rule="evenodd" fill="#E3FFFA" fill-opacity=".5647" fill-rule="evenodd"/>
				<path d="m95.4-9.85c4.4 0.767 7.883 1.567 10.45 2.4h0.1c2.81 1.034 4.493 2.134 5.05 3.3v-3.65c-0.033-2.6-5.333-4.8-15.9-6.6-10.567-1.9-23.333-2.85-38.3-2.85-15 0-27.783 0.95-38.35 2.85-10.062 1.688-15.337 3.821-15.825 6.4l-0.025 4.65c0.099-1.349 2.424-2.841 6.975-4.475 2.417-0.723 5.493-1.398 9.225-2.025 10.567-1.9 23.333-2.85 38.3-2.85s27.733 0.95 38.3 2.85z" clip-rule="evenodd" fill="#7B9B95" fill-rule="evenodd"/>
				<linearGradient id="bd" x1="-259.85" x2="-129.15" y1="-3.2251" y2="-3.2251" gradientUnits="userSpaceOnUse">
					<stop stop-color="#fff" stop-opacity="0" offset=".1451"/>
					<stop stop-color="#fff" stop-opacity=".349" offset=".9882"/>
				</linearGradient>
				<path d="m66.3 6l-12.65-18.7c-4.1 0.067-8.033 0.184-11.8 0.35l19.9 18.45c1.533 0 3.05-0.033 4.55-0.1zm-11.85 0.25l-37-15.9c-2.1 0.4-3.967 0.783-5.6 1.15l34.4 14.5c2.633 0.167 5.367 0.25 8.2 0.25zm47.15-4.15l-6.65-12.05c-1.1-0.167-2.233-0.367-3.4-0.6l8.5 13c0.53-0.067 1.05-0.183 1.55-0.35z" clip-rule="evenodd" fill="url(#bd)" fill-rule="evenodd"/>
					<linearGradient id="bj" x1="9.6001" x2="100" y1="-10.3" y2="-10.3" gradientUnits="userSpaceOnUse">
						<stop stop-color="#231F20" stop-opacity=".4196" offset="0"/>
						<stop stop-color="#231F20" stop-opacity=".0314" offset=".3961"/>
						<stop stop-color="#231F20" stop-opacity="0" offset=".5412"/>
						<stop stop-color="#231F20" stop-opacity=".0706" offset=".7294"/>
						<stop stop-color="#231F20" stop-opacity=".3725" offset="1"/>
					</linearGradient>
					<path d="m105.95-7.45c2.314 0.852 3.865 1.752 4.65 2.7v-4.225c-1.414-2.097-6.58-3.905-15.5-5.425-10.567-1.9-23.333-2.85-38.3-2.85-15 0-27.783 0.95-38.35 2.85-10.062 1.688-15.337 3.821-15.825 6.4l-0.025 4.65c0.02-0.269 0.128-0.544 0.325-0.825 0.789-1.125 3.006-2.342 6.65-3.65 2.417-0.723 5.493-1.398 9.225-2.025 10.567-1.9 23.333-2.85 38.3-2.85s27.733 0.95 38.3 2.85c4.285 0.747 7.701 1.521 10.25 2.325 0.066 0.028 0.133 0.053 0.2 0.075h0.1z" clip-rule="evenodd" fill="url(#bj)" fill-rule="evenodd"/>
					<linearGradient id="bk" x1="9.9502" x2="100.35" y1="-10.75" y2="-10.75" gradientUnits="userSpaceOnUse">
						<stop stop-color="#231F20" stop-opacity=".4196" offset="0"/>
						<stop stop-color="#231F20" stop-opacity=".0314" offset=".3961"/>
						<stop stop-color="#231F20" stop-opacity="0" offset=".5412"/>
						<stop stop-color="#231F20" stop-opacity=".0706" offset=".7294"/>
						<stop stop-color="#231F20" stop-opacity=".3725" offset="1"/>
					</linearGradient>
					<path d="m105.65-7.525c0.066 0.028 0.133 0.053 0.2 0.075h0.1c2.73 1.005 4.397 2.071 5 3.2v-3.95c-0.56-2.429-5.844-4.495-15.85-6.2-10.567-1.9-23.333-2.85-38.3-2.85-15 0-27.783 0.95-38.35 2.85-10.062 1.688-15.337 3.821-15.825 6.4v1.525c0.448-1.21 2.223-2.327 5.325-3.35 3.292-1.091 7.242-1.966 11.85-2.625 2.329-0.396 8.979-1.03 19.95-1.9 10.966-0.871 24.525-0.854 40.675 0.05 12.001 0.671 20.405 2.929 25.225 6.775z" clip-rule="evenodd" fill="url(#bk)" fill-rule="evenodd"/>
				<radialGradient id="bl" cx="170.09" cy="-56.3" r="57.713" gradientTransform="matrix(1 0 -.0223 1.601 -114.2 33.838)" gradientUnits="userSpaceOnUse">
				<stop stop-opacity=".3451" offset=".0196"/>
				<stop stop-opacity="0" offset="1"/>
			</radialGradient>
			<path d="m97.55-60.75c-11.066-1.267-24.517-1.9-40.35-1.9-15.733 0-29.2 0.633-40.4 1.9-11.2 1.2-16.8 2.683-16.8 4.45-0.033 1.8 5.533 3.3 16.7 4.5 11.1 1.233 24.533 1.85 40.3 1.85 15.8 0 29.3-0.617 40.5-1.85 11.133-1.2 16.733-2.7 16.8-4.5 0-1.767-5.58-3.25-16.75-4.45z" clip-rule="evenodd" fill="url(#bl)" fill-rule="evenodd"/>
			<use transform="translate(19.55 -6.5)" x="5.45" y="-54.65" width="87.1" height="56.65" xlink:href="#bt"/>
			<use transform="translate(47.5 -26.6)" x="-2.125" y="-17.8" width="65.775" height="37.5" xlink:href="#be"/>
</symbol>
<symbol id="bi" viewBox="0 -51.5 100.7 58.5">
	<g clip-rule="evenodd" fill-rule="evenodd">
			<path d="m34.85-9.3c1.467-4.567 2.517-7.733 3.15-9.5 1.667-5.233 3.75-10.083 6.25-14.55l-0.45-0.85c-3.4 7.034-6.333 14.15-8.8 21.35-2.033 5.967-3.75 11.967-5.15 18l0.45 1.75c1.633-6.833 3.15-12.233 4.55-16.2z" fill="#523524"/>
			<path d="m43.1-17.2l-8.25 7.9c-1.4 3.966-2.917 9.367-4.55 16.2l-0.1 0.1 8.45-4.8c0.967-6.7 2.45-13.167 4.45-19.4z" fill="#3C1C05"/>
			<polygon points="43.8 -34.2 44.25 -33.35 52.6 -38.3 52.65 -38.35 52 -39.2 44.8 -34.95" fill="#6B5446"/>
			<path d="m44.25-33.35c-2.5 4.467-4.583 9.317-6.25 14.55l8.6-8.05 6-11.45-8.35 4.95z" fill="#180900"/>
			<path d="m38-18.8c-0.633 1.767-1.683 4.933-3.15 9.5l8.25-7.9c1.033-3.267 2.2-6.483 3.5-9.65l-8.6 8.05z" fill="#2E1404"/>
			<polygon points="90.8 -32.35 30.3 -42.4 32.65 -40.7 91.9 -30.85" fill="#855D4A"/>
			<polygon points="90.8 -32.35 91.9 -30.85 96 -38.3 94.9 -39.65 90.9 -32.3" fill="#5A3B2C"/>
				<linearGradient id="bm" x1="-1462.1" x2="-1446.8" y1="-14043" y2="-14043" gradientTransform="matrix(.2406 -.9706 .9804 .201 14180 1374.8)" gradientUnits="userSpaceOnUse">
				<stop stop-color="#70402D" offset="0"/>
				<stop stop-color="#491F0E" offset="1"/>
			</linearGradient>
			<polygon points="30.3 -42.4 90.8 -32.35 90.9 -32.3 94.9 -39.65 33.85 -50.05 29.85 -42.45" fill="url(#bm)"/>
			<polygon points="70.65 -48.6 64.7 -39.6 67.2 -39.35 72.55 -48.1" fill="#522F1D"/>
				<linearGradient id="bn" x1="3592.9" x2="3599.4" y1="-19589" y2="-19589" gradientTransform="matrix(-.7726 -.6349 1.0159 -.4595 22711 -6747.8)" gradientUnits="userSpaceOnUse">
				<stop stop-color="#956B5A" offset="0"/>
				<stop stop-color="#633928" offset="1"/>
			</linearGradient>
			<path d="m0-7c5.126-3.562 10.726-7.062 16.8-10.5 13.594-7.683 29.561-15.05 47.9-22.1l5.95-9c-10.336 3.067-20.178 6.884-29.525 11.45-9.343 4.565-16.81 8.356-22.4 11.375-5.591 3.02-11.7 7.278-18.325 12.775l-0.4 6z" fill="url(#bn)"/>
			<path d="m64.7-39.6c-18.34 7.05-34.307 14.417-47.9 22.1-6.074 3.438-11.674 6.938-16.8 10.5l2.95 0.5c4.412-3.096 9.028-6.088 13.85-8.975 14.853-8.921 31.653-16.879 50.4-23.875l-2.5-0.25z" fill="#AF836D"/>
			<path d="m77.65-9.6c1.633 5.3 2.983 10.633 4.05 16l1.5-1.05c-3.4-17.9-10.35-35.317-20.85-52.25l-1.5 0.1c7.267 12.1 12.867 24.5 16.8 37.2z" fill="#593D2C"/>
				<linearGradient id="bo" x1="16734" x2="18669" y1="3249.7" y2="3249.7" gradientTransform="matrix(.6396 .7687 -1.2735 .033 -7462.5 -14145)" gradientUnits="userSpaceOnUse">
				<stop stop-color="#DC9A7F" offset="0"/>
				<stop stop-color="#633928" offset="1"/>
			</linearGradient>
			<path d="m81.7 6.4c-1.067-5.367-2.417-10.7-4.05-16l-6.3-6.05c1.333 4.1 2.5 8.283 3.5 12.55l6.6 9.45 0.25 0.05z" fill="url(#bo)"/>
			<polygon points="60.85 -46.8 62.35 -46.9 62.3 -47.15 55.5 -51.5 53.6 -51.25 60.85 -46.9" fill="#91796A"/>
				<linearGradient id="bp" x1="16734" x2="18669" y1="3241.1" y2="3241.1" gradientTransform="matrix(.6396 .7687 -1.2735 .033 -7462.5 -14145)" gradientUnits="userSpaceOnUse">
				<stop stop-color="#956B5A" offset="0"/>
				<stop stop-color="#633928" offset="1"/>
			</linearGradient>
			<path d="m60.85-46.8v-0.1l-7.25-4.35-0.1 0.05c7.667 11.067 13.617 22.917 17.85 35.55l6.3 6.05c-3.933-12.7-9.533-25.1-16.8-37.2z" fill="url(#bp)"/>
			<path d="m94.4-4.8c-5.333-12.567-14.95-25.667-28.85-39.3l0.2 1.85c11.567 11.367 21.1 24.3 28.6 38.8l0.05-1.35z" fill="#8C6652"/>
			<polygon points="94.4 -4.8 94.35 -3.45 94.35 -3.35 100.5 -7.55 100.6 -9.25" fill="#5B3A28"/>
			<linearGradient id="bq" x1="65.55" x2="100.7" y1="-26.7" y2="-26.7" gradientUnits="userSpaceOnUse">
				<stop stop-color="#956B5A" offset="0"/>
				<stop stop-color="#633928" offset="1"/>
			</linearGradient>
			<path d="m65.55-44.1c13.9 13.633 23.517 26.733 28.85 39.3l6.2-4.45h0.1c-6.967-13.5-16.7-26.617-29.2-39.35l-5.95 4.5z" fill="url(#bq)"/>
	</g>
</symbol>
<symbol id="bt" viewBox="5.45 -54.65 87.1 56.65">
	<g clip-rule="evenodd" fill-rule="evenodd">
			<path d="m54.25-44.65c-15.8 0.533-30.7 2.8-44.7 6.8l1 0.2c12.733-3.7 27.534-5.95 44.4-6.75l-0.7-0.25z" fill="#855A46"/>
			<polygon points="53.55 -50.25 54.25 -44.65 54.95 -44.4 54.55 -49.7" fill="#5F3B2B"/>
				<linearGradient id="br" x1="-320.86" x2="-306.66" y1="-13995" y2="-13995" gradientTransform="matrix(.2483 -.9687 1.0294 .0114 14517 -188.7)" gradientUnits="userSpaceOnUse">
				<stop stop-color="#70402D" offset="0"/>
				<stop stop-color="#491F0E" offset="1"/>
			</linearGradient>
			<path d="m54.25-44.65l-0.7-5.6h-0.1c-16.034 0.567-30.733 2.85-44.1 6.85l0.2 5.55c14-4 28.9-6.267 44.7-6.8z" fill="url(#br)"/>
			<polygon points="35.4 -22.15 35.4 -22.35 26 -37.7 17.2 -52.6 16.55 -53.7 16.35 -54 15.85 -52.35 35.25 -20.05" fill="#5E3B28"/>
				<linearGradient id="bs" x1="-2240.9" x2="-2229.1" y1="-3233.4" y2="-3233.4" gradientTransform="matrix(.9416 -.3367 .3367 .9416 3223.1 2262.5)" gradientUnits="userSpaceOnUse">
				<stop stop-opacity=".4196" offset="0"/>
				<stop stop-opacity="0" offset="1"/>
			</linearGradient>
			<path d="m35.4-22.15c0.267-2.067 0.517-3.633 0.75-4.7l-5.1-9.1-0.45-1.6-0.15-0.15h-4.45l9.4 15.35v0.2z" fill="url(#bs)"/>
				<linearGradient id="al" x1="5619.9" x2="5656.8" y1="-18025" y2="-18025" gradientTransform="matrix(-.246 -.9693 .8849 -.5784 17359 -4998.3)" gradientUnits="userSpaceOnUse">
				<stop stop-color="#B0917A" offset="0"/>
				<stop stop-color="#A27F71" offset=".1647"/>
				<stop stop-color="#A17F71" offset=".4902"/>
				<stop stop-color="#8D6352" offset=".8"/>
				<stop stop-color="#633928" offset="1"/>
			</linearGradient>
			<polygon points="15.85 -52.35 9.35 -48.85 9.4 -48.7 28.35 -16.55 35.25 -20.05" fill="url(#al)"/>
				<linearGradient id="am" x1="-1648.6" x2="-1636.4" y1="-2158.1" y2="-2158.1" gradientTransform="matrix(.9725 -.233 .233 .9725 2125.3 1670.6)" gradientUnits="userSpaceOnUse">
				<stop stop-opacity=".4196" offset="0"/>
				<stop stop-opacity="0" offset="1"/>
			</linearGradient>
			<polygon points="30.45 -37.7 17.95 -51.4 17.2 -52.6 26 -37.7" fill="url(#am)"/>
			<polygon points="16.35 -54 9.95 -50.75 9.35 -48.85 15.85 -52.35" fill="#7D5541"/>
			<linearGradient id="an" x1="16.842" x2="42.342" y1="-50.616" y2="-50.292" gradientUnits="userSpaceOnUse">
				<stop stop-opacity=".4196" offset="0"/>
				<stop stop-opacity="0" offset="1"/>
			</linearGradient>
			<path d="m17.2-52.6l0.75 1.2 12.75 4.15 11.7-3.75c-1.033-0.433-2.083-0.817-3.15-1.15l-22-1.65c-0.233 0.033-0.467 0.066-0.7 0.1l0.65 1.1z" fill="url(#an)"/>
			<linearGradient id="ao" x1="54.922" x2="43.046" y1="-38.502" y2="-41.346" gradientUnits="userSpaceOnUse">
				<stop stop-opacity=".4196" offset="0"/>
				<stop stop-opacity="0" offset="1"/>
			</linearGradient>
			<path d="m43-26.45l-0.05-0.15 15.35-26-13.35 15-0.15 1.15-3.4 6.6c0.433 0.767 0.967 1.9 1.6 3.4z" fill="url(#ao)"/>
			<polygon points="43.55 -24.95 59.65 -52.35 59.15 -54 58.3 -52.6 42.95 -26.6 43 -26.45" fill="#7C6152"/>
				<linearGradient id="ap" x1="-3738.7" x2="-3720.1" y1="-13998" y2="-13998" gradientTransform="matrix(.2457 -.9693 .885 .5785 13360 4445.5)" gradientUnits="userSpaceOnUse">
				<stop stop-color="#956B5A" offset="0"/>
				<stop stop-color="#633928" offset="1"/>
			</linearGradient>
			<polygon points="66.15 -48.85 59.65 -52.35 43.55 -24.95 50.3 -20.7 65 -46.75 66.1 -48.7" fill="url(#ap)"/>
			<linearGradient id="aq" x1="64.445" x2="72.745" y1="-49.986" y2="-49.113" gradientUnits="userSpaceOnUse">
				<stop stop-opacity=".4196" offset="0"/>
				<stop stop-opacity="0" offset="1"/>
			</linearGradient>
			<polygon points="59.7 -53.75 65.55 -50.75 66.15 -48.85 66.1 -48.7 65 -46.75 72.3 -45.35 79.15 -52.25" fill="url(#aq)"/>
			<polygon points="59.65 -52.35 66.15 -48.85 65.55 -50.75 59.7 -53.75 59.15 -54" fill="#603E2B"/>
			<path d="m44.35-47.45c-11.733 10.367-23.183 26.85-34.35 49.45l1.4-0.3c9.6-19.4 20.917-35.617 33.95-48.65l-0.95-0.35-0.05-0.15z" fill="#A17B5E"/>
			<polygon points="40.6 -54.65 44.35 -47.45 44.4 -47.3 45.35 -46.95 45.45 -46.95 45.3 -47.45 41.45 -54.3" fill="#583B29"/>
				<linearGradient id="ar" x1="8975.4" x2="8992.5" y1="-19214" y2="-19214" gradientTransform="matrix(-.4887 -.8724 .6962 -.8034 17793 -7622.1)" gradientUnits="userSpaceOnUse">
				<stop stop-color="#956B5A" offset="0"/>
				<stop stop-color="#633928" offset="1"/>
			</linearGradient>
			<path d="m10 2c11.167-22.6 22.617-39.083 34.35-49.45l-3.75-7.2c-2.934 2.867-5.75 5.816-8.45 8.85-3.903 4.417-7.561 9.025-10.975 13.825l0.075-0.025c-0.137 0.195-0.271 0.387-0.4 0.575l-1 1.675-0.075-0.125c-0.29 0.431-0.582 0.864-0.875 1.3-0.438 0.65-0.872 1.3-1.3 1.95l-3.2 5.125c-0.235 0.401-0.468 0.801-0.7 1.2-2.934 5-5.633 10.2-8.1 15.6-0.067 0.1-0.117 0.217-0.15 0.35l4.55 6.35z" fill="url(#ar)"/>
			<path d="m14.4-21.5l3.2-5.125c0.428-0.65 0.861-1.3 1.3-1.95l-2.075 0.8-6.775 9.475 1.5 1.6c0.927-1.62 1.877-3.219 2.85-4.8z" fill-opacity=".2431"/>
				<linearGradient id="as" x1="6886.9" x2="6892.4" y1="-19407" y2="-19407" gradientTransform="matrix(-.5515 -.8341 .7823 -.63 19007 -6518.1)" gradientUnits="userSpaceOnUse">
				<stop stop-opacity=".5686" offset="0"/>
				<stop stop-opacity="0" offset="1"/>
			</linearGradient>
			<path d="m20.85-31.425l0.325-0.55c3.414-4.799 7.072-9.407 10.975-13.825l-1.5-1.2-14.2 10.15 3.325 6.975 0.075 0.125 1-1.675z" fill="url(#as)"/>
			<path d="m91.75-0.2c-20.8-14.867-44.25-28.9-70.35-42.1v0.1l-0.35-0.25-1.1 0.35c11.667 6.133 22.466 12.067 32.4 17.8 14.433 8.367 27 16.333 37.7 23.9l1.7 0.2z" fill="#A37B62"/>
				<linearGradient id="at" x1="-3467.4" x2="-3458.6" y1="-7640.2" y2="-7640.2" gradientTransform="matrix(.7362 -.6767 .8804 .549 9332.1 1824)" gradientUnits="userSpaceOnUse">
				<stop stop-color="#956B5A" offset="0"/>
				<stop stop-color="#633928" offset="1"/>
			</linearGradient>
			<path d="m21.4-42.3c26.1 13.2 49.55 27.233 70.35 42.1l0.2 0.2 0.6-9.05c-7.267-4.7-16.066-10.483-26.4-17.35-0.1-0.067-0.2-0.15-0.3-0.25-8.1-5.367-19.467-12.1-34.1-20.2-1.467-0.8-2.95-1.617-4.45-2.45-2.367-1.267-4.8-2.583-7.3-3.95-0.067 0-0.117-0.017-0.15-0.05l1.55 11z" fill="url(#at)"/>
			<path d="m52.35-24.3c-9.934-5.733-20.733-11.667-32.4-17.8l-1-7.7-1.7-2.45-1.9 0.4 4.65 10.4 18.15 10.1c5.434 1.967 8.2 4.45 8.3 7.45l5.9-0.4z" fill-opacity=".1961"/>
			<linearGradient id="au" x1="52.371" x2="53.499" y1="-35.416" y2="-37.54" gradientUnits="userSpaceOnUse">
				<stop stop-opacity=".3686" offset="0"/>
				<stop stop-color="#231F20" stop-opacity="0" offset="1"/>
			</linearGradient>
			<path d="m31.75-46.85c14.633 8.1 26 14.833 34.1 20.2l7 1.15 1.4-0.85-40.3-22.1-2.2 1.6z" fill="url(#au)"/>
			<polygon points="21.4 -42.3 19.85 -53.3 18.6 -52.5 18.95 -49.8 19.95 -42.1 21.05 -42.45 21.4 -42.2" fill="#95745F"/>
			<linearGradient id="aw" x1="19.975" x2="32.525" y1="-51.15" y2="-51.15" gradientUnits="userSpaceOnUse">
				<stop stop-opacity=".3216" offset="0"/>
				<stop stop-color="#231F20" stop-opacity="0" offset="1"/>
			</linearGradient>
			<path d="m20-53.25c2.5 1.367 4.933 2.683 7.3 3.95l1.75 0.45 3.5-4.6-12.55 0.2z" fill="url(#aw)"/>
	</g>
</symbol>
		<use transform="matrix(1 0 0 -1 .5498 17.65)" y="-62.65" width="114.3" height="69.65" xlink:href="#bh"/>
		<use transform="matrix(1 0 0 -1 57.5 78.8)" x="16383" y="16383" width="-32766" height="-32766" xlink:href="#bg"/>
</svg>
